<svg xmlns="http://www.w3.org/2000/svg" xmlns:xlink="http://www.w3.org/1999/xlink" width="62" zoomAndPan="magnify" viewBox="0 0 46.5 42" height="56" preserveAspectRatio="xMidYMid meet" version="1.0"><defs><g/><clipPath id="43a6a37157"><path d="M 0.296875 0 L 45.714844 0 L 45.714844 41.023438 L 0.296875 41.023438 Z M 0.296875 0 " clip-rule="nonzero"/></clipPath><clipPath id="e0414fcb71"><path d="M 3.152344 0 L 44.171875 0 L 44.171875 40.148438 L 3.152344 40.148438 Z M 3.152344 0 " clip-rule="nonzero"/></clipPath></defs><g clip-path="url(#43a6a37157)"><path fill="#ffffff" d="M 0.296875 0 L 45.714844 0 L 45.714844 41.023438 L 0.296875 41.023438 Z M 0.296875 0 " fill-opacity="1" fill-rule="nonzero"/></g><path fill="#ffffff" d="M 43.386719 34.496094 L 9.4375 38.625 L 5.457031 5.488281 L 39.40625 1.359375 L 43.386719 34.496094 " fill-opacity="1" fill-rule="nonzero"/><path fill="#000000" d="M 5.59375 5.59375 L 9.542969 38.488281 L 43.25 34.390625 L 39.300781 1.496094 Z M 9.332031 38.761719 L 9.316406 38.640625 L 5.324219 5.382812 L 39.511719 1.222656 L 39.527344 1.34375 L 43.519531 34.605469 L 9.332031 38.761719 " fill-opacity="1" fill-rule="nonzero"/><g clip-path="url(#e0414fcb71)"><path fill="#ffffff" d="M 37.128906 40.003906 L 3.296875 32.734375 L 10.195312 0.195312 L 44.03125 7.464844 L 37.128906 40.003906 " fill-opacity="1" fill-rule="nonzero"/><path fill="#000000" d="M 3.4375 32.640625 L 37.035156 39.859375 L 43.886719 7.558594 L 10.289062 0.339844 Z M 37.222656 40.148438 L 37.105469 40.121094 L 3.152344 32.828125 L 10.101562 0.0507812 L 10.222656 0.0742188 L 44.175781 7.371094 L 37.222656 40.148438 " fill-opacity="1" fill-rule="nonzero"/></g><path fill="#ffffff" d="M 41.71875 36.734375 L 7.125 36.734375 L 7.125 3.464844 L 41.71875 3.464844 L 41.71875 36.734375 " fill-opacity="1" fill-rule="nonzero"/><path fill="#000000" d="M 7.246094 36.613281 L 41.597656 36.613281 L 41.597656 3.585938 L 7.246094 3.585938 Z M 41.84375 36.859375 L 7.003906 36.859375 L 7.003906 3.339844 L 41.84375 3.339844 L 41.84375 36.859375 " fill-opacity="1" fill-rule="nonzero"/><path fill="#000000" d="M 20.453125 9.441406 C 20.210938 9.304688 19.988281 9.109375 19.816406 8.878906 C 19.011719 7.792969 20.121094 5.792969 22.945312 0.972656 C 23.042969 0.800781 23.351562 0.277344 23.96875 0.0390625 C 24.429688 -0.140625 24.847656 -0.0859375 25.007812 -0.0507812 C 25.074219 -0.0390625 25.695312 0.0898438 26.058594 0.550781 C 26.535156 1.152344 26.476562 2.195312 25.835938 3.054688 C 25.605469 3.070312 25.375 3.085938 25.144531 3.101562 C 25.800781 2.292969 25.910156 1.375 25.558594 0.953125 C 25.457031 0.832031 25.230469 0.648438 24.902344 0.582031 C 24.824219 0.566406 24.546875 0.523438 24.242188 0.644531 C 23.824219 0.804688 23.609375 1.175781 23.527344 1.316406 C 21.261719 5.183594 19.769531 7.734375 20.347656 8.515625 C 20.570312 8.8125 20.917969 9.015625 21.210938 9.019531 C 21.785156 9.03125 22.230469 8.15625 23.042969 6.570312 C 23.109375 6.449219 23.171875 6.320312 23.242188 6.191406 C 23.53125 5.621094 23.910156 4.554688 23.683594 4.101562 C 23.625 3.980469 23.578125 3.945312 23.554688 3.9375 C 23.472656 3.910156 23.28125 4.050781 23.21875 4.097656 C 23.054688 4.21875 22.960938 4.363281 22.828125 4.605469 C 22.648438 4.933594 22.496094 5.289062 22.371094 5.65625 C 22.320312 5.855469 22.101562 5.953125 21.921875 5.878906 C 21.753906 5.808594 21.660156 5.601562 21.738281 5.425781 C 21.890625 4.925781 22.089844 4.546875 22.234375 4.277344 C 22.402344 3.972656 22.546875 3.757812 22.804688 3.570312 C 22.96875 3.445312 23.320312 3.191406 23.730469 3.320312 C 24.070312 3.425781 24.226562 3.738281 24.28125 3.839844 C 24.714844 4.710938 23.988281 6.210938 23.839844 6.503906 C 23.769531 6.636719 23.707031 6.761719 23.644531 6.886719 C 22.6875 8.75 22.207031 9.6875 21.234375 9.671875 C 20.972656 9.664062 20.703125 9.582031 20.453125 9.441406 " fill-opacity="1" fill-rule="nonzero"/><g fill="#545454" fill-opacity="1"><g transform="translate(10.833489, 27.167734)"><g><path d="M 2.40625 -0.28125 C 2.40625 -0.0078125 2.3125 0.191406 2.125 0.328125 C 1.945312 0.472656 1.75 0.546875 1.53125 0.546875 C 1.3125 0.546875 1.113281 0.472656 0.9375 0.328125 C 0.757812 0.191406 0.671875 -0.0078125 0.671875 -0.28125 C 0.671875 -1.414062 0.800781 -2.507812 1.0625 -3.5625 C 1.332031 -4.613281 1.664062 -5.660156 2.0625 -6.703125 C 1.957031 -6.890625 1.925781 -7.097656 1.96875 -7.328125 C 2.050781 -7.640625 2.238281 -7.832031 2.53125 -7.90625 C 2.820312 -8.601562 3.125 -9.296875 3.4375 -9.984375 C 3.757812 -10.679688 4.066406 -11.378906 4.359375 -12.078125 C 4.648438 -12.773438 4.914062 -13.476562 5.15625 -14.1875 C 5.40625 -14.90625 5.613281 -15.640625 5.78125 -16.390625 C 5.820312 -16.609375 5.910156 -16.796875 6.046875 -16.953125 C 6.191406 -17.117188 6.382812 -17.203125 6.625 -17.203125 C 6.863281 -17.203125 7.078125 -17.113281 7.265625 -16.9375 C 7.453125 -16.769531 7.53125 -16.566406 7.5 -16.328125 C 7.457031 -15.472656 7.472656 -14.691406 7.546875 -13.984375 C 7.617188 -13.285156 7.726562 -12.585938 7.875 -11.890625 C 8.019531 -11.203125 8.179688 -10.507812 8.359375 -9.8125 C 8.546875 -9.125 8.722656 -8.4375 8.890625 -7.75 C 9.046875 -7.09375 9.1875 -6.4375 9.3125 -5.78125 C 9.445312 -5.125 9.660156 -4.488281 9.953125 -3.875 C 10.097656 -3.5625 10.25 -3.265625 10.40625 -2.984375 C 10.570312 -2.703125 10.75 -2.414062 10.9375 -2.125 C 11.113281 -1.863281 11.273438 -1.585938 11.421875 -1.296875 C 11.566406 -1.015625 11.671875 -0.707031 11.734375 -0.375 C 11.753906 -0.132812 11.71875 0.0820312 11.625 0.28125 C 11.53125 0.488281 11.359375 0.628906 11.109375 0.703125 C 10.910156 0.753906 10.691406 0.722656 10.453125 0.609375 C 10.222656 0.492188 10.085938 0.320312 10.046875 0.09375 C 9.984375 -0.25 9.867188 -0.550781 9.703125 -0.8125 C 9.535156 -1.070312 9.363281 -1.34375 9.1875 -1.625 C 8.988281 -1.9375 8.800781 -2.253906 8.625 -2.578125 C 8.457031 -2.910156 8.3125 -3.253906 8.1875 -3.609375 C 8.039062 -3.972656 7.914062 -4.335938 7.8125 -4.703125 C 7.707031 -5.078125 7.613281 -5.457031 7.53125 -5.84375 C 6.875 -5.882812 6.226562 -5.914062 5.59375 -5.9375 C 4.957031 -5.957031 4.316406 -6.003906 3.671875 -6.078125 C 3.328125 -5.148438 3.03125 -4.203125 2.78125 -3.234375 C 2.539062 -2.273438 2.414062 -1.289062 2.40625 -0.28125 Z M 4.46875 -8.03125 C 4.4375 -7.988281 4.414062 -7.941406 4.40625 -7.890625 C 4.394531 -7.835938 4.378906 -7.789062 4.359375 -7.75 C 4.816406 -7.707031 5.269531 -7.679688 5.71875 -7.671875 C 6.175781 -7.660156 6.640625 -7.640625 7.109375 -7.609375 C 6.953125 -8.316406 6.78125 -9.015625 6.59375 -9.703125 C 6.414062 -10.398438 6.253906 -11.101562 6.109375 -11.8125 C 5.847656 -11.175781 5.578125 -10.546875 5.296875 -9.921875 C 5.015625 -9.304688 4.738281 -8.675781 4.46875 -8.03125 Z M 4.46875 -8.03125 "/></g></g></g><g fill="#545454" fill-opacity="1"><g transform="translate(22.904346, 27.167734)"><g><path d="M 2.171875 -1.53125 C 2.359375 -1.414062 2.5 -1.238281 2.59375 -1 C 2.695312 -0.769531 2.710938 -0.550781 2.640625 -0.34375 C 2.554688 -0.101562 2.410156 0.078125 2.203125 0.203125 C 2.046875 0.367188 1.84375 0.445312 1.59375 0.4375 C 1.34375 0.4375 1.140625 0.359375 0.984375 0.203125 C 0.765625 0.0234375 0.625 -0.117188 0.5625 -0.234375 C 0.445312 -0.441406 0.414062 -0.644531 0.46875 -0.84375 C 0.519531 -1.050781 0.632812 -1.226562 0.8125 -1.375 C 0.84375 -1.40625 0.878906 -1.4375 0.921875 -1.46875 C 0.960938 -1.507812 1.003906 -1.546875 1.046875 -1.578125 C 1.179688 -1.628906 1.257812 -1.65625 1.28125 -1.65625 C 1.300781 -1.65625 1.382812 -1.671875 1.53125 -1.703125 C 1.644531 -1.703125 1.734375 -1.6875 1.796875 -1.65625 C 1.941406 -1.632812 2.066406 -1.59375 2.171875 -1.53125 Z M 2.171875 -1.53125 "/></g></g></g><g fill="#545454" fill-opacity="1"><g transform="translate(26.031398, 27.167734)"><g><path d="M 0.3125 -13.515625 C 0.0703125 -13.492188 -0.128906 -13.578125 -0.296875 -13.765625 C -0.472656 -13.953125 -0.5625 -14.160156 -0.5625 -14.390625 C -0.5625 -14.640625 -0.472656 -14.84375 -0.296875 -15 C -0.128906 -15.15625 0.0703125 -15.242188 0.3125 -15.265625 C 1.039062 -15.328125 1.757812 -15.359375 2.46875 -15.359375 C 3.1875 -15.359375 3.910156 -15.335938 4.640625 -15.296875 C 4.835938 -15.367188 5.054688 -15.351562 5.296875 -15.25 C 6.648438 -15.144531 8.019531 -14.96875 9.40625 -14.71875 C 9.644531 -14.675781 9.820312 -14.535156 9.9375 -14.296875 C 10.050781 -14.066406 10.070312 -13.851562 10 -13.65625 C 9.925781 -13.40625 9.789062 -13.234375 9.59375 -13.140625 C 9.394531 -13.046875 9.171875 -13.015625 8.921875 -13.046875 C 8.367188 -13.140625 7.820312 -13.222656 7.28125 -13.296875 C 6.75 -13.367188 6.203125 -13.429688 5.640625 -13.484375 C 5.441406 -12.460938 5.320312 -11.441406 5.28125 -10.421875 C 5.25 -9.398438 5.28125 -8.363281 5.375 -7.3125 C 5.476562 -6.226562 5.625 -5.15625 5.8125 -4.09375 C 6.007812 -3.039062 6.207031 -1.984375 6.40625 -0.921875 C 6.457031 -0.671875 6.429688 -0.445312 6.328125 -0.25 C 6.234375 -0.0507812 6.066406 0.0820312 5.828125 0.15625 C 5.597656 0.226562 5.367188 0.203125 5.140625 0.078125 C 4.921875 -0.0351562 4.789062 -0.207031 4.75 -0.4375 C 4.507812 -1.613281 4.285156 -2.78125 4.078125 -3.9375 C 3.867188 -5.101562 3.710938 -6.28125 3.609375 -7.46875 C 3.523438 -8.5 3.503906 -9.523438 3.546875 -10.546875 C 3.585938 -11.566406 3.703125 -12.582031 3.890625 -13.59375 C 2.691406 -13.632812 1.5 -13.609375 0.3125 -13.515625 Z M 0.3125 -13.515625 "/></g></g></g></svg>